<svg width="38" height="38" viewBox="0 0 38 38" fill="none" xmlns="http://www.w3.org/2000/svg">
<rect x="-0.5" y="0.5" width="36.6" height="36.6" rx="18.3" transform="matrix(-1 0 0 1 36.6 0)" fill="#101127" stroke="#5669FF"/>
<path d="M12.0769 18.0929C11.6864 18.4834 11.6864 19.1166 12.0769 19.5071L18.4408 25.8711C18.8314 26.2616 19.4645 26.2616 19.8551 25.8711C20.2456 25.4805 20.2456 24.8474 19.8551 24.4568L14.1982 18.8L19.8551 13.1431C20.2456 12.7526 20.2456 12.1194 19.8551 11.7289C19.4645 11.3384 18.8314 11.3384 18.4408 11.7289L12.0769 18.0929ZM25.568 17.8L12.784 17.8L12.784 19.8L25.568 19.8L25.568 17.8Z" fill="#5669FF"/>
</svg>
