<svg width="24" height="25" viewBox="0 0 24 25" fill="none" xmlns="http://www.w3.org/2000/svg">
<path d="M8 4.0625H7.2002C6.08009 4.0625 5.51962 4.0625 5.0918 4.28049C4.71547 4.47223 4.40973 4.77797 4.21799 5.1543C4 5.58212 4 6.14259 4 7.2627V8.0625M8 4.0625H16M8 4.0625V2.0625M16 4.0625H16.8002C17.9203 4.0625 18.4796 4.0625 18.9074 4.28049C19.2837 4.47223 19.5905 4.77797 19.7822 5.1543C20 5.5817 20 6.14149 20 7.25941V8.0625M16 4.0625V2.0625M4 8.0625V16.8627C4 17.9828 4 18.5426 4.21799 18.9704C4.40973 19.3467 4.71547 19.653 5.0918 19.8447C5.5192 20.0625 6.07899 20.0625 7.19691 20.0625H16.8031C17.921 20.0625 18.48 20.0625 18.9074 19.8447C19.2837 19.653 19.5905 19.3467 19.7822 18.9704C20 18.543 20 17.984 20 16.8661V8.0625M4 8.0625H20M16 16.0625H16.002L16.002 16.0645L16 16.0645V16.0625ZM12 16.0625H12.002L12.002 16.0645L12 16.0645V16.0625ZM8 16.0625H8.002L8.00195 16.0645L8 16.0645V16.0625ZM16.002 12.0625V12.0645L16 12.0645V12.0625H16.002ZM12 12.0625H12.002L12.002 12.0645L12 12.0645V12.0625ZM8 12.0625H8.002L8.00195 12.0645L8 12.0645V12.0625Z" stroke="#F2FEFF" stroke-width="2" stroke-linecap="round" stroke-linejoin="round"/>
</svg>
